<svg xmlns="http://www.w3.org/2000/svg" viewBox="0 0 14 14">
  <path fill-rule="evenodd"
    d="M5.394.6666a3.4124 3.4124 0 00-3.4226 3.4227A3.4126 3.4126 0 005.394 7.5126a3.4127 3.4127 0 003.4234-3.4233A3.4121 3.4121 0 005.394.6666zm0 1c1.3467 0 2.4234 1.0767 2.4234 2.4227A2.4128 2.4128 0 015.394 6.5126c-1.3466 0-2.4226-1.0766-2.4226-2.4233 0-1.3467 1.0766-2.4227 2.4226-2.4227zm6.984 2.4107c0-1.4893-1.208-2.698-2.698-2.698-.276 0-.5.224-.5.5 0 .2767.224.5.5.5.938 0 1.698.7607 1.698 1.698 0 .938-.76 1.698-1.698 1.698-.276 0-.5.224-.5.5 0 .2767.224.5.5.5 1.49 0 2.698-1.2073 2.698-2.698zm-.512 4.252a7.7406 7.7406 0 00-1.1413-.164.5002.5002 0 00-.068.998 6.735 6.735 0 011.004.1447c.518.1026.8607.274.9533.4686.07.1467.07.32 0 .4667-.092.194-.4333.3653-.946.4707a.499.499 0 00-.3886.59.4994.4994 0 00.59.3893c.7966-.164 1.38-.456 1.648-1.02a1.5515 1.5515 0 000-1.3267c-.27-.566-.8587-.86-1.6514-1.0173zM.3334 11.012c0-1.7494 1.8386-2.3747 5.0606-2.3747l.2134.0013c3.0966.0267 4.848.652 4.848 2.36 0 1.672-1.6787 2.3174-4.64 2.3714l-.4214.0033c-3.2293 0-5.06-.6133-5.06-2.3613H.3334zm9.122-.0134c0-.898-1.38-1.3613-4.0614-1.3613-2.678 0-4.06.47-4.06 1.3747 0 .8993 1.3787 1.3613 4.06 1.3613 2.6787 0 4.0614-.47 4.0614-1.3747z"
    clip-rule="evenodd" />
</svg>