<svg xmlns="http://www.w3.org/2000/svg" viewBox="0 0 16 17">
  <path fill-rule="evenodd"
    d="M9.40078 8.03065L15.6998 1.6972c.1875-.18946.2927-.44527.2927-.711858 0-.266586-.1052-.522394-.2927-.711855-.0928-.093497-.2031-.167744-.3247-.2183865a.998005.998005 0 00-.3837-.0767069c-.1317 0-.2621.0260647-.3836.0767069-.1216.0506425-.2319.1248895-.3247.2183865L7.98411 6.60688 1.68512.273487C1.59238.17999 1.48202.105743 1.36045.0551005 1.23888.0044583 1.10849-.0216064.97679-.0216064c-.131697 0-.262088.0260647-.383659.0767069C.471561.105743.361204.17999.268454.273487.080911.462948-.024292.718756-.024292.985342c0 .266588.105203.522398.292746.711858L6.56744 8.03065.268454 14.364c-.1872365.1895-.2922519.4451-.2922519.7114 0 .2663.1050154.5219.2922519.7114.09275.0935.203107.1676.324677.2183.121571.0506.251962.0767.383659.0767.1317 0 .26209-.0261.38366-.0767.12157-.0507.23193-.1248.32467-.2183l6.29899-6.33349 6.29899 6.33349c.0934.093.2043.1667.3262.2169.1219.0502.2525.0758.3843.0756.1318-.0003.2623-.0266.384-.0773.1217-.0507.2322-.1248.3252-.2183.093-.0934.1667-.2042.2169-.3261.0502-.1219.0759-.2525.0756-.3844-.0003-.1318-.0265-.2622-.0772-.3839-.0507-.1217-.1249-.2322-.2183-.3253L9.40078 8.03065z"
    clip-rule="evenodd" />
</svg>