<svg xmlns="http://www.w3.org/2000/svg" viewBox="0 0 24 22">
  <path
    d="M20.0617 21.5466c-.3414-.1344-.6529-.3349-.9165-.5901-.2526-.2404-.4536-.5297-.5907-.8503-.1357-.3559-.2036-.734-.2003-1.1148-.0034-.3589.0647-.7149.2003-1.0473.1345-.342.3352-.6542.5907-.9184.2627-.2553.5745-.4547.9165-.5861.3567-.1345.7355-.201 1.1167-.1963.3641-.0101.7264.0541 1.0649.1887.3384.1346.6459.3369.9036.5943.2671.2533.4803.5581.6266.8959.1464.3378.223.7017.2251 1.0699.0125.3702-.0575.7385-.2048 1.0784-.1473.3399-.3683.6427-.6469.8867-.5211.5044-1.2179.7864-1.9431.7863h-.0501c-.3728-.0002-.7426-.0669-1.092-.1969zm-10.68401-.0667L4.7853 14.7381h-.12883v6.7418H0V.200012h4.65647V13.1662h.06675l4.45956-5.69713h5.63572L9.3917 13.817l5.6938 7.6615-5.70781.0014z" />
</svg>